<?xml version="1.0" encoding="UTF-8"?>
<svg id="Home" xmlns="http://www.w3.org/2000/svg" version="1.1" viewBox="0 0 1090 1204.5">
  <!-- Generator: Adobe Illustrator 30.2.1, SVG Export Plug-In . SVG Version: 2.1.1 Build 1)  -->
  <defs>
    <style>
      .st0 {
        fill: #ea9d13;
        opacity: .8;
      }

      .st1 {
        fill: #fff;
      }
    </style>
  </defs>
  <polygon class="st1" points="483.7 657.5 483.8 619.9 418.6 657.5 451.1 676.3 483.7 657.5"/>
  <polygon class="st1" points="483.8 582.4 451.2 563.6 418.7 582.5 418.8 620 483.8 582.4"/>
  <polygon class="st0" points="483.8 619.9 418.7 582.5 418.8 620 483.7 657.5 483.8 619.9"/>
  <g>
    <polygon class="st1" points="693.7 607.6 692.3 607.6 690.6 607.6 690.5 609.3 691.1 609.3 691.2 608 692.3 608 692.3 612.6 691.6 612.6 691.6 613 692.3 613 693.7 613 694.5 613 694.5 612.6 693.7 612.6 693.7 608 694.8 608 694.9 609.3 695.5 609.3 695.5 607.6 693.7 607.6"/>
    <polygon class="st1" points="703 608 703 607.6 702.4 607.6 701.5 607.6 701.5 607.6 701.3 607.6 701 607.6 699.6 611.1 698.1 607.6 697.2 607.6 696.8 607.6 696.1 607.6 696.1 608 696.8 608 696.8 612.5 695.9 612.6 695.9 613 696.8 613 697.2 613 698 613 698 612.6 697.2 612.5 697.2 608.9 699 613 699.2 613 700.9 608.9 700.9 612.6 700.3 612.6 700.3 613 700.9 613 702.4 613 703 613 703 612.6 702.4 612.6 702.4 608 703 608"/>
    <path class="st1" d="M549,620.9c-2.3-1.7-5.3-3.3-9.2-5l-3.7-1.6c-2.9-1.3-5.1-2.8-6.7-4.4-1.6-1.7-2.4-3.9-2.4-6.7s1.1-5.6,3.4-7.3c2.2-1.7,5.1-2.5,8.6-2.5s4,.3,5.7,1c.3.1.7.3,1.1.5l2.7,11.4h3.8l.5-11.6c-2-1.3-4.2-2.4-6.6-3.1-2.4-.7-5.1-1.1-8.1-1.1s-6.8.6-9.7,1.7c-2.9,1.2-5.2,2.9-6.9,5.1-1.7,2.3-2.5,5.1-2.5,8.4s1.3,7.7,3.8,10.4c2.5,2.7,6.2,5.1,10.9,7.2l3.4,1.5c2.6,1,4.6,2.1,6,3.2,1.4,1.1,2.5,2.3,3.1,3.6.6,1.3,1,2.9,1,4.7,0,3.4-1.2,6.1-3.5,7.9-2.4,1.8-5.5,2.7-9.6,2.7s-5-.3-6.9-.9c-.7-.2-1.4-.5-2.2-.9l-2.9-11.9h-3.7l-.5,12.2c2.1,1.3,4.6,2.4,7.6,3.3,3,.8,6.1,1.3,9.3,1.3s7.9-.7,11-2c3.1-1.4,5.4-3.3,7.1-5.7,1.6-2.4,2.5-5.3,2.5-8.5s-.5-5.1-1.4-7.1c-1-2-2.6-3.8-4.8-5.5Z"/>
    <path class="st1" d="M598.7,623.1c0-3.1-.6-5.9-1.9-8.4-1.3-2.5-3.2-4.5-5.7-5.9-2.5-1.5-5.6-2.2-9.2-2.2s-6.8.9-9.8,2.6c-3.1,1.7-5.5,4.2-7.4,7.4-1.9,3.2-2.8,7-2.8,11.5s.9,8.6,2.7,11.8c1.8,3.2,4.2,5.6,7.3,7.3,3.1,1.6,6.7,2.5,10.7,2.5s6.8-.8,9.6-2.4c2.7-1.6,4.9-3.9,6.5-6.7l-1.3-1.1c-1.4,1.8-3.1,3.3-5.1,4.3-2,1-4.3,1.5-7,1.5s-5.2-.6-7.3-1.9c-2.2-1.3-3.8-3.2-5-5.9-1.1-2.5-1.7-5.7-1.8-9.6h27.2c.3-1.3.5-2.9.5-4.7ZM589.6,624c-.5.8-1.6,1.2-3,1.2h-15.5c.1-3.2.6-5.9,1.4-8.2,1-2.7,2.2-4.7,3.8-6,1.6-1.3,3.4-2,5.3-2,2.8,0,4.9,1,6.5,2.9,1.6,2,2.3,4.6,2.3,7.9s-.3,3.3-.8,4.1Z"/>
    <path class="st1" d="M617.9,642.7c0-2,0-4.1-.1-6.2,0-2.1,0-4.1,0-6v-25.8l.3-11.2-1.2-.7-14.2,2.7v2.1l6.4.4v32.6c0,1.8,0,3.8,0,6,0,2.1,0,4.2,0,6.2,0,1,0,1.9,0,2.8l-6.4.6v2.2h21.6v-2.2l-6.2-.6c0-.9,0-1.9,0-2.8Z"/>
    <path class="st1" d="M643.8,642.7c0-2,0-4.1-.1-6.2,0-2.1,0-4.1,0-6v-25.8l.3-11.2-1.2-.7-14.2,2.7v2.1l6.4.4v32.6c0,1.8,0,3.8,0,6,0,2.1,0,4.2,0,6.2,0,1,0,1.9,0,2.8l-6.4.6v2.2h21.6v-2.2l-6.2-.6c0-.9,0-1.9,0-2.8Z"/>
    <path class="st1" d="M675.1,624.6l-4.2-1.4c-2.9-.9-4.9-2-6-3.1-1.2-1.2-1.7-2.6-1.7-4.3s.7-3.6,2.2-4.8c1.5-1.2,3.6-1.8,6.3-1.8s3.2.2,4.5.7c.6.2,1.3.5,1.9.8l2,8h3.5l.4-8.8c-2.1-1.2-4-2.1-6-2.6-1.9-.6-4.1-.8-6.5-.8-5,0-8.9,1.2-11.6,3.5-2.7,2.4-4,5.3-4,8.9s.9,5.5,2.8,7.4c1.9,1.9,4.4,3.4,7.7,4.4l4.2,1.5c3.1,1,5.3,2.1,6.4,3.2,1.1,1.2,1.7,2.7,1.7,4.5s-.8,3.9-2.5,5.1c-1.7,1.3-4.1,1.9-7.4,1.9s-4-.3-5.6-.8c-.5-.2-1.1-.4-1.6-.7l-1.9-8.8h-3.9l-.2,9.6c2.2,1.1,4.3,1.9,6.5,2.5,2.2.6,4.6.9,7.3.9s6.7-.6,9.2-1.7c2.5-1.1,4.4-2.6,5.7-4.5,1.3-1.9,2-4.1,2-6.6s-.9-5.3-2.6-7.3c-1.7-2-4.6-3.6-8.5-4.9Z"/>
  </g>
</svg>